<svg xmlns="http://www.w3.org/2000/svg" viewBox="0 0 512 256">
  <path d="M219.78 116.75c0-1.69-.64-3.09-1.93-4.18s-3.73-2.04-7.32-2.85c-5.13-1.12-8.99-2.63-11.58-4.54-2.59-1.91-3.89-4.52-3.89-7.82s1.46-6.36 4.38-8.77c2.92-2.42 6.72-3.63 11.41-3.63 4.92 0 8.83 1.26 11.74 3.79 2.9 2.53 4.29 5.6 4.16 9.22l-.08.23h-7.34c0-1.85-.78-3.51-2.32-4.98-1.55-1.47-3.6-2.21-6.15-2.21-2.73 0-4.77.6-6.09 1.8-1.33 1.2-1.99 2.64-1.99 4.34s.59 2.98 1.76 3.95c1.17.96 3.55 1.82 7.15 2.58 5.34 1.15 9.31 2.7 11.91 4.67 2.6 1.97 3.91 4.6 3.91 7.91 0 3.75-1.52 6.78-4.55 9.1-3.03 2.32-7 3.48-11.89 3.48-5.39 0-9.64-1.37-12.73-4.1-3.1-2.73-4.57-5.92-4.41-9.57l.08-.23h7.34c.13 2.72 1.15 4.71 3.05 5.97 1.9 1.26 4.13 1.88 6.68 1.88 2.73 0 4.88-.55 6.43-1.66 1.55-1.11 2.32-2.56 2.32-4.36Zm27.42-41.21v10.2h8.01v5.7h-8.01v25.66c0 1.98.41 3.37 1.23 4.18.82.81 1.91 1.21 3.26 1.21.44 0 .93-.05 1.46-.16.53-.1 1.01-.23 1.43-.39l1.02 5.27c-.57.47-1.41.85-2.52 1.15-1.11.3-2.22.45-3.34.45-3.12 0-5.61-.94-7.46-2.83-1.85-1.89-2.77-4.85-2.77-8.89V91.43h-6.72v-5.7h6.72v-10.2h7.7ZM290.68 128c-.26-1.28-.46-2.4-.61-3.38-.14-.98-.23-1.96-.25-2.95-1.43 2.03-3.3 3.73-5.61 5.1s-4.79 2.05-7.44 2.05c-4.4 0-7.75-1.13-10.06-3.38-2.3-2.25-3.46-5.36-3.46-9.32s1.63-7.19 4.9-9.47c3.27-2.28 7.7-3.42 13.3-3.42h8.36v-4.18c0-2.47-.76-4.43-2.27-5.88-1.51-1.45-3.65-2.17-6.41-2.17-2.47 0-4.49.63-6.04 1.89-1.55 1.26-2.32 2.78-2.32 4.55h-7.34l-.08-.23c-.16-3.07 1.29-5.88 4.36-8.44 3.06-2.55 7.01-3.83 11.86-3.83s8.65 1.22 11.56 3.65c2.92 2.44 4.38 5.94 4.38 10.53v20.35c0 1.51.08 2.97.23 4.38s.44 2.79.86 4.14h-7.93Zm-12.77-5.66c2.79 0 5.3-.71 7.54-2.14 2.24-1.43 3.7-3.06 4.38-4.91v-6.86h-8.63c-3.1 0-5.58.78-7.44 2.34-1.86 1.56-2.79 3.39-2.79 5.49 0 1.87.59 3.35 1.76 4.44s2.9 1.64 5.2 1.64Zm55.35-5.59c0-1.69-.64-3.09-1.93-4.18s-3.73-2.04-7.32-2.85c-5.13-1.12-8.99-2.63-11.58-4.54-2.59-1.91-3.89-4.52-3.89-7.82s1.46-6.36 4.38-8.77c2.92-2.42 6.72-3.63 11.41-3.63 4.92 0 8.83 1.26 11.74 3.79 2.9 2.53 4.29 5.6 4.16 9.22l-.08.23h-7.34c0-1.85-.78-3.51-2.32-4.98-1.55-1.47-3.6-2.21-6.15-2.21-2.73 0-4.77.6-6.09 1.8-1.33 1.2-1.99 2.64-1.99 4.34s.59 2.98 1.76 3.95c1.17.96 3.55 1.82 7.15 2.58 5.34 1.15 9.31 2.7 11.91 4.67 2.6 1.97 3.91 4.6 3.91 7.91 0 3.75-1.52 6.78-4.55 9.1-3.03 2.32-7 3.48-11.89 3.48-5.39 0-9.64-1.37-12.73-4.1-3.1-2.73-4.57-5.92-4.41-9.57l.08-.23h7.34c.13 2.72 1.15 4.71 3.05 5.97 1.9 1.26 4.13 1.88 6.68 1.88 2.73 0 4.88-.55 6.43-1.66 1.55-1.11 2.32-2.56 2.32-4.36Zm24.96-25.35c1.46-2.03 3.25-3.61 5.37-4.75 2.12-1.13 4.47-1.7 7.05-1.7 4.5 0 8.01 1.35 10.53 4.06 2.51 2.71 3.77 6.88 3.77 12.5v26.48h-7.7v-26.56c0-3.49-.75-6.07-2.25-7.73-1.5-1.67-3.73-2.5-6.7-2.5-2.14 0-4.07.5-5.8 1.5-1.73 1-3.16 2.36-4.28 4.08v31.21h-7.7V67.05h7.7v24.34Zm52.69 15.58h-19.14v-6.02h19.14v6.02Zm31.57 9.77c0-1.69-.64-3.09-1.93-4.18s-3.73-2.04-7.32-2.85c-5.13-1.12-8.99-2.63-11.58-4.54-2.59-1.91-3.89-4.52-3.89-7.82s1.46-6.36 4.38-8.77c2.92-2.42 6.72-3.63 11.41-3.63 4.92 0 8.83 1.26 11.74 3.79 2.9 2.53 4.29 5.6 4.16 9.22l-.08.23h-7.34c0-1.85-.78-3.51-2.32-4.98-1.55-1.47-3.6-2.21-6.15-2.21-2.73 0-4.77.6-6.09 1.8-1.33 1.2-1.99 2.64-1.99 4.34s.59 2.98 1.76 3.95c1.17.96 3.55 1.82 7.15 2.58 5.34 1.15 9.31 2.7 11.91 4.67 2.6 1.97 3.91 4.6 3.91 7.91 0 3.75-1.52 6.78-4.55 9.1-3.03 2.32-7 3.48-11.89 3.48-5.39 0-9.64-1.37-12.73-4.1-3.1-2.73-4.57-5.92-4.41-9.57l.08-.23h7.34c.13 2.72 1.15 4.71 3.05 5.97 1.9 1.26 4.13 1.88 6.68 1.88 2.73 0 4.88-.55 6.43-1.66 1.55-1.11 2.32-2.56 2.32-4.36Zm38.04-46.45c1.95 0 3.89.22 5.8.66 1.91.44 3.5 1 4.75 1.68l-1.64 5.9c-1.28-.65-2.61-1.18-4-1.58-1.39-.4-3.03-.61-4.9-.61-4.06 0-7.34 1.63-9.82 4.88-2.49 3.26-3.73 7.5-3.73 12.73v.9c1.67-1.46 3.57-2.6 5.72-3.42s4.46-1.23 6.93-1.23c5.08 0 9.13 1.76 12.15 5.27 3.02 3.52 4.53 7.97 4.53 13.36 0 5.89-1.61 10.68-4.82 14.39-3.22 3.71-7.51 5.57-12.87 5.57s-10.18-2.02-13.83-6.05c-3.65-4.04-5.47-9.73-5.47-17.07V94.82c0-7.29 2.03-13.2 6.09-17.73s9.1-6.8 15.12-6.8Zm-2.61 25.67c-2.63 0-4.87.53-6.72 1.6-1.85 1.07-3.26 2.48-4.22 4.25v4.6c0 5.23 1.11 9.26 3.32 12.09s4.99 4.25 8.32 4.25c3.15 0 5.61-1.33 7.36-4 1.76-2.67 2.64-5.97 2.64-9.93 0-3.74-.94-6.83-2.83-9.24-1.89-2.42-4.51-3.63-7.87-3.63Z"/>
  <path fill="#dea66c" d="M100.6 59.53 33.74 94c-1.46.86-1.88 2.14-1.87 4l.13 2.32 70.59 36.2 70.42-35.62s.08-.36.08-1.61c0 0-.06-1.65-.44-2.42-.41-.87-1.28-1.65-1.85-2.13-1.5-1.24-3-2.35-5.55-3.78-36.57-20.67-60.61-31.33-60.61-31.33-1.55-.58-2.83-.78-4.04-.09Z"/>
  <path fill="#b38251" d="M32.92 176.58c3.9 2.58 11.01 5.96 18.2 9.86 16.71 9.05 37.84 20.05 48.35 24.37 1.42.59 2.27.87 3.26.92.73.04 1.94-.45 1.94-.45s-1.96-70.74-2.08-74.78c-.12-3.95-1.77-5.26-3.23-6.2-2.28-1.46-7.23-3.74-7.23-3.74s-17.33-8.61-34.63-17.69c-8.23-4.32-15.18-8.74-22.65-12.38-1.37-.65-2.99.17-2.99 1.7v76.65c0 .73.45 1.35 1.06 1.74Z"/>
  <path fill="#966239" d="m171.14 177.03-66.34 34.21c-1.06.55-2.33-.22-2.33-1.42l.12-73.29c0-.7-.22-2.26-.44-2.87-.6-1.79.7-2.51 1.29-2.81l65.8-33.89c1.74-.9 3.83.37 3.83 2.33v74.58c0 1.32-.74 2.54-1.94 3.15Z"/>
  <path fill="#212121" d="M141.51 114.33s-36.36 18.6-36.95 20.17c-.59 1.56 28.53-12.43 31.94-14.19 3.86-1.99 34.16-18.19 34.16-19.97.01-1.46-29.15 13.98-29.15 13.98Z" opacity=".5" style="isolation:isolate"/>
  <g fill="#212121" opacity=".5">
    <path d="M36.85 172.34c4.73 2.38 9.42 4.84 15.27 7.83v-2.28c-5.82-2.97-10.52-5.42-15.27-7.83v2.28Zm9.96 1.04c1.33.68 2 1.03 3.26 1.67.01-3.97.01-5.96.03-9.93-1.26-.64-1.91-.97-3.23-1.65-.03 3.97-.04 5.95-.05 9.92Zm-8.28-4.26c1.1.56 1.72.88 2.97 1.53.03-3.96.04-5.93.06-9.9-1.27-.65-1.88-.96-3-1.55-.01 3.97-.03 5.96-.04 9.92Z"/>
    <path d="M44.72 163.55c3.04 1.55 4.65 2.38 7.33 3.74-1.33-2.42-2.06-3.65-3.52-6.14-1.5.97-2.28 1.45-3.81 2.4Zm-7.87-4.04c2.27 1.18 3.79 1.96 6.79 3.5-1.49-2.5-2.23-3.74-3.6-6.19-1.4 1.01-2.05 1.54-3.19 2.69Z"/>
  </g>
  <g fill="#212121" opacity=".5">
    <path d="M61.21 183.3c1.06.55 1.61.85 2.68 1.4-.08-4.72-.12-7.08-.21-11.79-1.03-.54-1.54-.81-2.56-1.33.04 4.69.05 7.04.09 11.73Z"/>
    <path d="M57.3 182.47c3.9 2.05 6.92 3.59 10.66 5.59-.03-1.35-1.06-2.97-2.47-3.73-2.2-1.17-3.46-1.81-5.69-2.97-1.44-.73-2.5-.21-2.5 1.12Zm7.42-13.32c.65 1.38.99 2.09 1.64 3.47-.51 1.09-.78 1.64-1.32 2.72.46-.04.69-.05 1.15-.09.62-.82.92-1.23 1.51-2.05-.54-1.27-.82-1.91-1.38-3.18 1.56.86 2.33 1.29 3.76 2.13 0 4.59-3 6.61-7.51 4.26-4.51-2.35-7.5-7.59-7.5-12.19 3.36 1.68 5.61 2.78 9.65 4.93Z"/>
  </g>
  <path fill="#ffe0b2" d="M149.56 106.51c-.64-.47-69.46-36.43-69.46-36.43L58.75 81.12l70.56 36.39.04.04L150 106.98s-.04-.1-.15-.23c-.09-.08-.24-.19-.28-.23Z"/>
  <path fill="#bf9f85" d="M149.89 106.82c-11.69 5.75-20.58 10.69-20.58 10.69.29.29.31.68.31.87-.04 1.49-.06 2.67-.1 4.14-.18 7.63-.28 15.27-.54 22.89.86-.51 1.9.62 2.68 0 1.2-.95 3.77-5.13 4.15-5.26.51-.17 1.06-.04 1.59-.06 2.31-.13 7.47-4.83 8.57-5.05 1.06-.21 4.58.47 4.58.47s-.24-23.26-.33-27.17c-.03-1.38-.32-1.53-.32-1.53Z"/>
  <path fill="#ffac33" d="M233.68 168.64c-.16-.43-.58-.72-1.04-.72h-13.42l7.74-15.05c.28-.54.07-1.21-.48-1.5a1.125 1.125 0 0 0-1.24.15l-8.16 7.05-16.28 14.06c-.46.4-.52 1.1-.12 1.57.21.24.52.38.84.39h13.42l-7.74 15.05c-.28.54-.07 1.21.48 1.5a1.125 1.125 0 0 0 1.24-.15l8.16-7.05 16.28-14.06c.35-.3.48-.79.32-1.23Z"/>
  <path d="M242.46 165.82c.77-1.26 1.75-2.24 2.95-2.93 1.2-.69 2.51-1.04 3.93-1.04 2.27 0 3.95.64 5.06 1.91 1.11 1.28 1.67 3.19 1.68 5.74v13.87h-2.32v-13.89c-.01-1.89-.41-3.29-1.2-4.22-.79-.92-2.05-1.39-3.78-1.39-1.45 0-2.72.45-3.84 1.36s-1.94 2.13-2.47 3.66v14.47h-2.32v-30h2.32v12.44Zm24.68 12.69.35 1.82.47-1.91 5.08-16.17h1.99l5.02 16.04.55 2.23.45-2.05 4.34-16.21h2.42l-6.15 21.13h-1.99l-5.43-16.76-.25-1.15-.25 1.17-5.33 16.74h-1.99l-6.13-21.13h2.4l4.47 16.27Zm38.44 4.87c-.23-.66-.38-1.65-.45-2.95-.82 1.07-1.87 1.89-3.13 2.47s-2.61.87-4.03.87c-2.03 0-3.67-.57-4.93-1.7s-1.88-2.57-1.88-4.3c0-2.06.86-3.68 2.57-4.88s4.1-1.8 7.16-1.8h4.24v-2.4c0-1.51-.47-2.7-1.4-3.56s-2.29-1.3-4.07-1.3c-1.63 0-2.98.42-4.04 1.25s-1.6 1.84-1.6 3.01l-2.34-.02c0-1.68.78-3.13 2.34-4.37s3.48-1.85 5.76-1.85 4.22.59 5.58 1.77 2.06 2.82 2.1 4.93v10c0 2.04.21 3.57.64 4.59v.23h-2.5Zm-7.34-1.68c1.56 0 2.96-.38 4.19-1.13s2.13-1.76 2.69-3.03v-4.65h-4.18c-2.33.03-4.15.45-5.47 1.28s-1.97 1.96-1.97 3.41c0 1.18.44 2.17 1.32 2.95s2.02 1.17 3.43 1.17Zm23.24.1c1.63 0 2.99-.46 4.09-1.38s1.7-2.11 1.79-3.56h2.25c-.07 1.29-.47 2.46-1.21 3.53s-1.73 1.89-2.96 2.49-2.55.9-3.96.9c-2.77 0-4.97-.96-6.59-2.89s-2.43-4.52-2.43-7.77v-.7c0-2.08.36-3.93 1.09-5.53s1.77-2.84 3.13-3.71 2.95-1.31 4.78-1.31c2.32 0 4.23.69 5.73 2.07s2.31 3.2 2.41 5.45h-2.25c-.1-1.65-.7-2.99-1.79-4s-2.46-1.52-4.11-1.52c-2.11 0-3.75.76-4.91 2.29s-1.75 3.66-1.75 6.41v.68c0 2.7.58 4.8 1.75 6.31s2.81 2.27 4.93 2.27Zm20.6 0c1.63 0 2.99-.46 4.09-1.38s1.7-2.11 1.79-3.56h2.25c-.07 1.29-.47 2.46-1.21 3.53s-1.73 1.89-2.96 2.49-2.55.9-3.96.9c-2.77 0-4.97-.96-6.59-2.89s-2.43-4.52-2.43-7.77v-.7c0-2.08.36-3.93 1.09-5.53s1.77-2.84 3.13-3.71 2.95-1.31 4.78-1.31c2.32 0 4.23.69 5.73 2.07s2.31 3.2 2.41 5.45h-2.25c-.1-1.65-.7-2.99-1.79-4s-2.46-1.52-4.11-1.52c-2.11 0-3.75.76-4.91 2.29s-1.75 3.66-1.75 6.41v.68c0 2.7.58 4.8 1.75 6.31s2.81 2.27 4.93 2.27Zm20.98 1.97c-1.8 0-3.42-.44-4.87-1.33s-2.58-2.12-3.39-3.7-1.21-3.36-1.21-5.32v-.84c0-2.03.39-3.86 1.18-5.49s1.88-2.91 3.29-3.84 2.93-1.4 4.57-1.4c2.57 0 4.6.88 6.1 2.63s2.26 4.14 2.26 7.18v1.31h-15.08v.45c0 2.4.69 4.39 2.06 5.99s3.1 2.39 5.19 2.39c1.25 0 2.35-.23 3.31-.68s1.83-1.18 2.61-2.19l1.46 1.11c-1.72 2.49-4.21 3.73-7.48 3.73Zm-.43-19.92c-1.76 0-3.24.64-4.44 1.93s-1.94 3.02-2.2 5.2h12.68v-.25c-.07-2.03-.64-3.68-1.74-4.96s-2.53-1.91-4.3-1.91Zm15.53 19.53h-2.34v-30h2.34v30Zm25.33-14.46h8.65v2.19h-8.65v9.41h-2.36v-9.41h-8.48v-2.19h8.48v-9.1h2.36v9.1Z"/>
  <path fill="#dd2e44" d="M436.65 159.73c-.8 0-2.55 2.49-3.96 1.14-.49-.47 2.02-1.42 1.92-2.24-.08-.67-3.16-1.69-2.08-2.33 1.07-.64 2.69.93 3.9.96 2.65.06 4.68-.95 4.71-.96a1.21 1.21 0 0 1 1.63.55c.3.61.06 1.35-.54 1.65-.15.07-2.47 1.23-5.57 1.23Z"/>
  <path fill="#77b255" d="M454.4 191.25c-4.41 0-9.09-3.24-9.09-9.23 0-1.53-.99-1.85-1.82-1.85s-1.82.32-1.82 1.85c0 6-4.68 9.23-9.09 9.23s-9.09-3.08-9.09-9.23c0-14.77 15.76-16.81 15.76-14.77s-8.48-1.23-8.48 13.54c0 2.46.99 3.08 1.82 3.08s1.82-.32 1.82-1.85c0-5.99 4.68-9.23 9.09-9.23s9.09 3.24 9.09 9.23c0 1.53.99 1.85 1.82 1.85s1.82-.32 1.82-1.85v-18.46c0-4.28-3.8-4.92-6.06-4.92 0 0-3.64 1.23-7.27 1.23s-4.85-2.88-4.85-4.92 4.85-3.69 12.12-3.69 13.33 4.95 13.33 12.31v18.46c0 6-4.68 9.23-9.09 9.23Z"/>
  <circle cx="444.6" cy="154.58" r="1.11" fill="#292f33"/>
</svg>
