<svg xmlns="http://www.w3.org/2000/svg" viewBox="0 0 512 256">
  <path fill="#91ddf2" d="M0 0h512v256H0z"/>
  <path d="M219.8 116.8c0-1.7-.6-3.1-1.9-4.2s-3.7-2-7.3-2.9c-5.1-1.1-9-2.6-11.6-4.5-2.6-1.9-3.9-4.5-3.9-7.8s1.5-6.4 4.4-8.8c2.9-2.4 6.7-3.6 11.4-3.6s8.8 1.3 11.7 3.8c2.9 2.5 4.3 5.6 4.2 9.2v.2h-7.4c0-1.8-.8-3.5-2.3-5-1.5-1.5-3.6-2.2-6.2-2.2s-4.8.6-6.1 1.8c-1.3 1.2-2 2.6-2 4.3s.6 3 1.8 3.9c1.2 1 3.6 1.8 7.1 2.6 5.3 1.1 9.3 2.7 11.9 4.7 2.6 2 3.9 4.6 3.9 7.9s-1.5 6.8-4.6 9.1c-3 2.3-7 3.5-11.9 3.5s-9.6-1.4-12.7-4.1c-3.1-2.7-4.6-5.9-4.4-9.6v-.2h7.4c.1 2.7 1.1 4.7 3 6 1.9 1.3 4.1 1.9 6.7 1.9s4.9-.6 6.4-1.7 2.3-2.6 2.3-4.4Zm27.4-41.3v10.2h8v5.7h-8v25.7c0 2 .4 3.4 1.2 4.2.8.8 1.9 1.2 3.3 1.2s.9 0 1.5-.2c.5-.1 1-.2 1.4-.4l1 5.3c-.6.5-1.4.9-2.5 1.2-1.1.3-2.2.4-3.3.4-3.1 0-5.6-.9-7.5-2.8-1.8-1.9-2.8-4.8-2.8-8.9V91.4h-6.7v-5.7h6.7V75.5h7.7Zm43.5 52.5c-.3-1.3-.5-2.4-.6-3.4-.1-1-.2-2-.3-2.9-1.4 2-3.3 3.7-5.6 5.1s-4.8 2.1-7.4 2.1c-4.4 0-7.8-1.1-10.1-3.4s-3.5-5.4-3.5-9.3 1.6-7.2 4.9-9.5c3.3-2.3 7.7-3.4 13.3-3.4h8.4v-4.2c0-2.5-.8-4.4-2.3-5.9-1.5-1.4-3.6-2.2-6.4-2.2s-4.5.6-6 1.9c-1.5 1.3-2.3 2.8-2.3 4.6h-7.3v-.2c-.2-3.1 1.2-5.9 4.3-8.4 3.1-2.6 7-3.8 11.9-3.8s8.6 1.2 11.6 3.7c2.9 2.4 4.4 5.9 4.4 10.5v20.4c0 1.5 0 3 .2 4.4s.4 2.8.9 4.1h-7.9Zm-12.8-5.7c2.8 0 5.3-.7 7.5-2.1 2.2-1.4 3.7-3.1 4.4-4.9v-6.9h-8.6c-3.1 0-5.6.8-7.4 2.3-1.9 1.6-2.8 3.4-2.8 5.5s.6 3.4 1.8 4.4 2.9 1.6 5.2 1.6Zm55.4-5.5c0-1.7-.6-3.1-1.9-4.2s-3.7-2-7.3-2.9c-5.1-1.1-9-2.6-11.6-4.5-2.6-1.9-3.9-4.5-3.9-7.8s1.5-6.4 4.4-8.8c2.9-2.4 6.7-3.6 11.4-3.6s8.8 1.3 11.7 3.8c2.9 2.5 4.3 5.6 4.2 9.2v.2h-7.4c0-1.8-.8-3.5-2.3-5-1.5-1.5-3.6-2.2-6.2-2.2s-4.8.6-6.1 1.8c-1.3 1.2-2 2.6-2 4.3s.6 3 1.8 3.9c1.2 1 3.6 1.8 7.1 2.6 5.3 1.1 9.3 2.7 11.9 4.7 2.6 2 3.9 4.6 3.9 7.9s-1.5 6.8-4.6 9.1c-3 2.3-7 3.5-11.9 3.5s-9.6-1.4-12.7-4.1c-3.1-2.7-4.6-5.9-4.4-9.6v-.2h7.4c.1 2.7 1.1 4.7 3 6 1.9 1.3 4.1 1.9 6.7 1.9s4.9-.6 6.4-1.7 2.3-2.6 2.3-4.4Zm24.9-25.4c1.5-2 3.2-3.6 5.4-4.7 2.1-1.1 4.5-1.7 7.1-1.7 4.5 0 8 1.4 10.5 4.1 2.5 2.7 3.8 6.9 3.8 12.5v26.5h-7.7v-26.6c0-3.5-.7-6.1-2.2-7.7-1.5-1.7-3.7-2.5-6.7-2.5s-4.1.5-5.8 1.5c-1.7 1-3.2 2.4-4.3 4.1v31.2h-7.7V67.2h7.7v24.3Zm52.7 15.6h-19.1v-6h19.1v6Zm31.6 9.8c0-1.7-.6-3.1-1.9-4.2s-3.7-2-7.3-2.9c-5.1-1.1-9-2.6-11.6-4.5-2.6-1.9-3.9-4.5-3.9-7.8s1.5-6.4 4.4-8.8c2.9-2.4 6.7-3.6 11.4-3.6s8.8 1.3 11.7 3.8c2.9 2.5 4.3 5.6 4.2 9.2v.2h-7.4c0-1.8-.8-3.5-2.3-5-1.5-1.5-3.6-2.2-6.2-2.2s-4.8.6-6.1 1.8c-1.3 1.2-2 2.6-2 4.3s.6 3 1.8 3.9c1.2 1 3.6 1.8 7.1 2.6 5.3 1.1 9.3 2.7 11.9 4.7 2.6 2 3.9 4.6 3.9 7.9s-1.5 6.8-4.6 9.1c-3 2.3-7 3.5-11.9 3.5s-9.6-1.4-12.7-4.1c-3.1-2.7-4.6-5.9-4.4-9.6v-.2h7.4c.1 2.7 1.1 4.7 3 6 1.9 1.3 4.1 1.9 6.7 1.9s4.9-.6 6.4-1.7 2.3-2.6 2.3-4.4Zm38-46.5c2 0 3.9.2 5.8.7 1.9.4 3.5 1 4.7 1.7l-1.6 5.9c-1.3-.7-2.6-1.2-4-1.6-1.4-.4-3-.6-4.9-.6-4.1 0-7.3 1.6-9.8 4.9-2.5 3.3-3.7 7.5-3.7 12.7v.9c1.7-1.5 3.6-2.6 5.7-3.4s4.5-1.2 6.9-1.2c5.1 0 9.1 1.8 12.1 5.3s4.5 8 4.5 13.4-1.6 10.7-4.8 14.4c-3.2 3.7-7.5 5.6-12.9 5.6s-10.2-2-13.8-6.1c-3.6-4-5.5-9.7-5.5-17.1V94.9c0-7.3 2-13.2 6.1-17.7s9.1-6.8 15.1-6.8ZM477.9 96c-2.6 0-4.9.5-6.7 1.6-1.8 1.1-3.3 2.5-4.2 4.3v4.6c0 5.2 1.1 9.3 3.3 12.1 2.2 2.8 5 4.3 8.3 4.3s5.6-1.3 7.4-4c1.8-2.7 2.6-6 2.6-9.9s-.9-6.8-2.8-9.2c-1.9-2.4-4.5-3.6-7.9-3.6Z"/>
  <path fill="#dea66c" d="M100.6 59.5 33.7 94c-1.5.9-1.9 2.1-1.9 4v2.3c.1 0 70.7 36.2 70.7 36.2l70.4-35.6v-1.6s0-1.7-.4-2.4c-.4-.9-1.3-1.7-1.8-2.1-1.5-1.2-3-2.3-5.5-3.8-36.6-20.7-60.6-31.3-60.6-31.3-1.6-.6-2.8-.8-4 0Z"/>
  <path fill="#b38251" d="M32.9 176.6c3.9 2.6 11 6 18.2 9.9 16.7 9 37.8 20 48.3 24.4 1.4.6 2.3.9 3.3.9.7 0 1.9-.4 1.9-.4s-2-70.7-2.1-74.8c-.1-3.9-1.8-5.3-3.2-6.2-2.3-1.5-7.2-3.7-7.2-3.7s-17.3-8.6-34.6-17.7c-8.2-4.3-15.2-8.7-22.6-12.4-1.4-.7-3 .2-3 1.7v76.6c0 .7.4 1.3 1.1 1.7Z"/>
  <path fill="#966239" d="m171.1 177-66.3 34.2c-1.1.6-2.3-.2-2.3-1.4v-73.3c.1-.7-.1-2.3-.3-2.9-.6-1.8.7-2.5 1.3-2.8l65.8-33.9c1.7-.9 3.8.4 3.8 2.3v74.6c0 1.3-.7 2.5-1.9 3.2Z"/>
  <path d="M141.5 114.3s-36.4 18.6-37 20.2c-.6 1.6 28.5-12.4 31.9-14.2 3.9-2 34.2-18.2 34.2-20 0-1.5-29.1 14-29.1 14Z" class="cls-8" opacity=".5" style="isolation:isolate"/>
  <g class="cls-12">
    <path d="M36.9 172.3c4.7 2.4 9.4 4.8 15.3 7.8v-2.3c-5.8-3-10.5-5.4-15.3-7.8v2.3Zm9.9 1.1c1.3.7 2 1 3.3 1.7v-9.9c-1.3-.6-1.9-1-3.2-1.7v9.9Zm-8.3-4.3c1.1.6 1.7.9 3 1.5v-9.9c-1.3-.7-1.9-1-3-1.6v9.9Z" class="cls-8"/>
    <path d="M44.7 163.5c3 1.6 4.7 2.4 7.3 3.7-1.3-2.4-2.1-3.7-3.5-6.1-1.5 1-2.3 1.4-3.8 2.4Zm-7.8-4c2.3 1.2 3.8 2 6.8 3.5-1.5-2.5-2.2-3.7-3.6-6.2-1.4 1-2.1 1.5-3.2 2.7Z" class="cls-8"/>
  </g>
  <g class="cls-12">
    <path d="M61.2 183.3c1.1.6 1.6.8 2.7 1.4 0-4.7-.1-7.1-.2-11.8-1-.5-1.5-.8-2.6-1.3v11.7Z" class="cls-8"/>
    <path d="M57.3 182.5c3.9 2.1 6.9 3.6 10.7 5.6 0-1.3-1.1-3-2.5-3.7-2.2-1.2-3.5-1.8-5.7-3-1.4-.7-2.5-.2-2.5 1.1Zm7.4-13.4c.7 1.4 1 2.1 1.6 3.5-.5 1.1-.8 1.6-1.3 2.7h1.2c.6-.8.9-1.2 1.5-2.1-.5-1.3-.8-1.9-1.4-3.2 1.6.9 2.3 1.3 3.8 2.1 0 4.6-3 6.6-7.5 4.3s-7.5-7.6-7.5-12.2c3.4 1.7 5.6 2.8 9.7 4.9Z" class="cls-8"/>
  </g>
  <path fill="#ffe0b2" d="M149.6 106.5c-.6-.5-69.5-36.4-69.5-36.4l-21.4 11 70.6 36.4 20.6-10.5s0-.1-.2-.2c0 0-.2-.2-.3-.2Z"/>
  <path fill="#bf9f85" d="M149.9 106.8c-11.7 5.8-20.6 10.7-20.6 10.7.3.3.3.7.3.9 0 1.5 0 2.7-.1 4.1-.2 7.6-.3 15.3-.5 22.9.9-.5 1.9.6 2.7 0 1.2-.9 3.8-5.1 4.2-5.3.5-.2 1.1 0 1.6 0 2.3-.1 7.5-4.8 8.6-5.1 1.1-.2 4.6.5 4.6.5s-.2-23.3-.3-27.2c0-1.4-.3-1.5-.3-1.5Z"/>
  <path fill="#ffac33" d="M233.7 168.6c-.2-.4-.6-.7-1-.7h-13.4l7.7-15c.3-.5 0-1.2-.5-1.5-.2 0-.3-.1-.5-.1-.3 0-.5 0-.7.3l-8.2 7.1-16.3 14.1c-.5.4-.5 1.1-.1 1.6.2.2.5.4.8.4h13.4l-7.7 15c-.3.5 0 1.2.5 1.5.2 0 .3.1.5.1.3 0 .5 0 .7-.3l8.2-7 16.3-14.1c.4-.3.5-.8.3-1.2Z"/>
  <path d="M242.5 165.8c.8-1.3 1.8-2.2 2.9-2.9 1.2-.7 2.5-1 3.9-1 2.3 0 4 .6 5.1 1.9 1.1 1.3 1.7 3.2 1.7 5.7v13.9h-2.3v-13.9c0-1.9-.4-3.3-1.2-4.2-.8-.9-2-1.4-3.8-1.4s-2.7.5-3.8 1.4-1.9 2.1-2.5 3.7v14.5h-2.3v-30h2.3v12.4Zm24.6 12.7.4 1.8.5-1.9 5.1-16.2h2l5 16 .5 2.2.4-2.1 4.3-16.2h2.4l-6.2 21.1h-2l-5.4-16.8-.3-1.2-.3 1.2-5.3 16.7h-2l-6.1-21.1h2.4l4.5 16.3Zm38.5 4.9c-.2-.7-.4-1.6-.4-2.9-.8 1.1-1.9 1.9-3.1 2.5s-2.6.9-4 .9c-2 0-3.7-.6-4.9-1.7s-1.9-2.6-1.9-4.3.9-3.7 2.6-4.9 4.1-1.8 7.2-1.8h4.2v-2.4c0-1.5-.5-2.7-1.4-3.6s-2.3-1.3-4.1-1.3-3 .4-4 1.2-1.6 1.8-1.6 3h-2.3c0-1.7.8-3.2 2.3-4.4s3.5-1.8 5.8-1.8 4.2.6 5.6 1.8 2.1 2.8 2.1 4.9v10c0 2 .2 3.6.6 4.6v.2h-2.5Zm-7.4-1.7c1.6 0 3-.4 4.2-1.1s2.1-1.8 2.7-3V173h-4.2c-2.3 0-4.2.5-5.5 1.3s-2 2-2 3.4.4 2.2 1.3 2.9 2 1.2 3.4 1.2Zm23.3.1c1.6 0 3-.5 4.1-1.4s1.7-2.1 1.8-3.6h2.2c0 1.3-.5 2.5-1.2 3.5s-1.7 1.9-3 2.5-2.5.9-4 .9c-2.8 0-5-1-6.6-2.9s-2.4-4.5-2.4-7.8v-.7c0-2.1.4-3.9 1.1-5.5s1.8-2.8 3.1-3.7 3-1.3 4.8-1.3 4.2.7 5.7 2.1 2.3 3.2 2.4 5.4h-2.2c-.1-1.7-.7-3-1.8-4s-2.5-1.5-4.1-1.5-3.7.8-4.9 2.3-1.7 3.7-1.7 6.4v.7c0 2.7.6 4.8 1.7 6.3s2.8 2.3 4.9 2.3Zm20.6 0c1.6 0 3-.5 4.1-1.4s1.7-2.1 1.8-3.6h2.2c0 1.3-.5 2.5-1.2 3.5s-1.7 1.9-3 2.5-2.5.9-4 .9c-2.8 0-5-1-6.6-2.9s-2.4-4.5-2.4-7.8v-.7c0-2.1.4-3.9 1.1-5.5s1.8-2.8 3.1-3.7 3-1.3 4.8-1.3 4.2.7 5.7 2.1 2.3 3.2 2.4 5.4h-2.2c-.1-1.7-.7-3-1.8-4s-2.5-1.5-4.1-1.5-3.7.8-4.9 2.3-1.7 3.7-1.7 6.4v.7c0 2.7.6 4.8 1.7 6.3s2.8 2.3 4.9 2.3Zm21 2c-1.8 0-3.4-.4-4.9-1.3s-2.6-2.1-3.4-3.7-1.2-3.4-1.2-5.3v-.8c0-2 .4-3.9 1.2-5.5s1.9-2.9 3.3-3.8 2.9-1.4 4.6-1.4c2.6 0 4.6.9 6.1 2.6s2.3 4.1 2.3 7.2v1.3H356v.4c0 2.4.7 4.4 2.1 6s3.1 2.4 5.2 2.4 2.4-.2 3.3-.7 1.8-1.2 2.6-2.2l1.5 1.1c-1.7 2.5-4.2 3.7-7.5 3.7Zm-.5-20c-1.8 0-3.2.6-4.4 1.9s-1.9 3-2.2 5.2h12.7v-.3c0-2-.6-3.7-1.7-5s-2.5-1.9-4.3-1.9Zm15.6 19.6h-2.3v-30h2.3v30Zm25.3-14.5h8.7v2.2h-8.7v9.4h-2.4v-9.4h-8.5v-2.2h8.5v-9.1h2.4v9.1Z"/>
  <path fill="#dd2e44" d="M436.6 159.7c-.8 0-2.5 2.5-4 1.1-.5-.5 2-1.4 1.9-2.2 0-.7-3.2-1.7-2.1-2.3 1.1-.6 2.7.9 3.9 1 2.6 0 4.7-.9 4.7-1 .6-.3 1.3 0 1.6.5.3.6 0 1.3-.5 1.7-.1 0-2.5 1.2-5.6 1.2Z"/>
  <path fill="#77b255" d="M454.4 191.2c-4.4 0-9.1-3.2-9.1-9.2s-1-1.8-1.8-1.8-1.8.3-1.8 1.8c0 6-4.7 9.2-9.1 9.2s-9.1-3.1-9.1-9.2c0-14.8 15.8-16.8 15.8-14.8s-8.5-1.2-8.5 13.5 1 3.1 1.8 3.1 1.8-.3 1.8-1.8c0-6 4.7-9.2 9.1-9.2s9.1 3.2 9.1 9.2 1 1.8 1.8 1.8 1.8-.3 1.8-1.8v-18.5c0-4.3-3.8-4.9-6.1-4.9 0 0-3.6 1.2-7.3 1.2s-4.8-2.9-4.8-4.9c0-2 4.8-3.7 12.1-3.7s13.3 4.9 13.3 12.3V182c0 6-4.7 9.2-9.1 9.2Z"/>
  <circle cx="444.6" cy="154.6" r="1.1" fill="#292f33"/>
</svg>
